<svg id="Layer_1" data-name="Layer 1" xmlns="http://www.w3.org/2000/svg" viewBox="0 0 439.21 234.82"><defs><style>.cls-1{fill:#fff;}</style></defs><path class="cls-1" d="M160,138.56v.18c-1.1,3.66-2.38,7.13-3.48,10.78-2,6.57-4,13-6,19.36a10.53,10.53,0,0,1,2.55,2.37,3.94,3.94,0,0,0,.74,1.1c1.46,2.37.18,5.29-1.83,6.94a8.76,8.76,0,0,1-4.75,1.64h-.73c-2.37,7.49-4.93,15-7.49,22.47-3.47,10-6.76,20.09-10.23,30.13-1.46,4.57-2.92,8.95-4.56,13.33a46.46,46.46,0,0,1-2.56,7.13c-.91,1.64-1.46,3.47-2.37,4.93,0-.37.18-.55.18-.73a6.53,6.53,0,0,1-2.56,2.92.63.63,0,0,1-.36.18.19.19,0,0,0-.19.19,3.93,3.93,0,0,1-4,.91,4.11,4.11,0,0,1-2.74-2.74c-.19-.18-.19-.37-.19-.73a5.86,5.86,0,0,1-.73-2.92v-1.28c.19-.92.37-1.83.55-2.56a52.17,52.17,0,0,1,1.28-5.66c.73-2,1.46-4.2,2-6.21,1.64-4.57,3.1-9.13,4.75-13.7,3.65-10,7.3-20.27,11-30.32,2-5.66,4-11.32,6-16.8a85.65,85.65,0,0,0-19.36.55,79.21,79.21,0,0,0-9.13,1.64c-2.19,7.31-4.56,14.43-6.94,21.74-2,5.84-4,11.69-6.21,17.53a12.82,12.82,0,0,1-1.46,3.29,9.4,9.4,0,0,0-.91,2c-.73,1.46-1.28,2.74-2,4.2-.55,1.28-1.28,2.74-2,4.2a20.21,20.21,0,0,0-1.1,2,5.86,5.86,0,0,1-3.65,2.55,4.18,4.18,0,0,1-4.57-1.82,3.92,3.92,0,0,1-.73-1.83,6.78,6.78,0,0,1,0-3.29c.19-.91.37-1.64.55-2.37.55-1.83.91-3.47,1.46-5.11a47.23,47.23,0,0,0,1.28-4.94c.37-1.64,1.1-3.28,1.64-4.93q5.49-14.52,10.42-29c-.74.37-1.65.73-2.56,1.1h-.37a1.39,1.39,0,0,1-.91.37,19.5,19.5,0,0,1-1.83.91,4.13,4.13,0,1,1-4.2-7.12,100.46,100.46,0,0,1,14.07-7c1.27-4,2.55-7.85,4-11.68.55-1.47,1.28-2.93,1.83-4.39a20.67,20.67,0,0,1,.91-2.37s.55-1.83.73-1.83c0,0-.36.91-.18.37a.59.59,0,0,0,.18-.37,33.55,33.55,0,0,1,2.2-5.11c.36-.73.91-1.46,1.27-2.19a5.47,5.47,0,0,1,.92-1.28s0-.19.18-.19a3.32,3.32,0,0,1,3.83-2,3.27,3.27,0,0,1,2.2,3.83v2.38a10.53,10.53,0,0,1-.18,2.37,11.66,11.66,0,0,1-.74,3.47c0,.37-.18.73-.18,1.28l-.18.55a28.09,28.09,0,0,1-1.28,5.66,53.5,53.5,0,0,1-1.28,5.29c-.18.55-.36,1.1-.55,1.83a72.14,72.14,0,0,1,14.25-2.37,81.48,81.48,0,0,1,13.33-.55h2c1.46-4.2,3.11-8.22,4.75-12.42.37-.91.73-1.83,1.1-2.74,0-.18,0-.18.18-.37v-.18c.18-.36.18-.55.36-.73a2.62,2.62,0,0,1,.37-1.09c.73-1.65,1.28-3.11,1.83-4.57,1.27-2.92,2.37-5.85,3.47-8.77a4.72,4.72,0,0,1,5.66-3.28C159.06,133.26,160.89,136.19,160,138.56Z" transform="translate(-30.39 -132.59)"/><path class="cls-1" d="M177.68,160.11c0,.55,0,.55-.18-.18-.36-.73-.73-1.28-1.1-2a6.14,6.14,0,0,1,1.65,2.56,8,8,0,0,1-.18,2.92,9.35,9.35,0,0,1-.37,2.37,35,35,0,0,1-.91,4.2c-.55,2.93-1.46,5.85-2.19,8.77-1.46,5.3-3.11,10.59-4.75,15.71-1.65,5.29-3.29,10.41-4.93,15.7q-2.47,7.68-4.93,15.35c-.92,2.37,0-.19-.92,2.37-.36,1.28-.73,2.37-1.09,3.65a15.82,15.82,0,0,1-1.1,3.11,7.82,7.82,0,0,1-4.57,3.47l2.74-1.65-1.64,1.65c-2.37,2.56-7.49,1.64-8.4-2.19a9,9,0,0,0-.37-2.2l1.65,2.74a9,9,0,0,1-2-3.1,7.42,7.42,0,0,1,0-4c.18-.55.55-1.28.73-2a25.21,25.21,0,0,1,1.28-4c.91-2.92.18-.54,1.09-3.47,3.29-10.22,7.13-20.45,10.78-30.68,1.83-5.11,3.47-10.41,5.3-15.52q1.37-3.84,2.74-7.67a29.36,29.36,0,0,1,1.46-3.66c.18-.54.54-1.28.73-1.82a5.19,5.19,0,0,1,3.83-3.66c-.73.37-1.28.73-2,1.1-.36.55-.36.55-.18.18C172,154.45,177.68,156.09,177.68,160.11Z" transform="translate(-30.39 -132.59)"/><path class="cls-1" d="M235.39,185.13a55.78,55.78,0,0,1-1.82,9.32,59.8,59.8,0,0,1-26.49,34.15A74.84,74.84,0,0,1,193,235c-2.37.73-4.93,1.46-7.49,2-.73.19-1.46.19-2,.37-.73.18-1.28.55-2,.73a6.06,6.06,0,0,1-3.1-.18,10.89,10.89,0,0,1-2.38-.19c-.54-.18-1.09-.54-1.82-.73a6.08,6.08,0,0,1-4.39-4.93,6.51,6.51,0,0,1,2.93-6.21c1.46-.73,2.56-1.64,4.2-2h.36c.37-.73.55-1.46.92-2.19,1.64-4.2,3.47-8.22,5.11-12.42,3.11-7.67,5.84-15.34,8.77-23,1.46-3.84,2.92-7.67,4.38-11.69.55-1.28.91-2.56,1.46-3.84-.18,0-.18-.18-.36-.36a4.93,4.93,0,0,1-.37-3.65,4.7,4.7,0,0,1,2.19-2.74,7.41,7.41,0,0,1,2-1.28c.18-.55.37-.91.55-1.46a4.32,4.32,0,0,1,5.48-1.65c.36,0,.73.37.91.55a24.15,24.15,0,0,1,15.16,2.38,23.71,23.71,0,0,1,8,7.3C234.66,174.17,235.76,179.84,235.39,185.13Zm-15.52,8.4a44.77,44.77,0,0,0,2.74-9.31,13.72,13.72,0,0,0,0-3.84,15.67,15.67,0,0,0-.73-2.74c-.37-.73-.73-1.46-1.28-2.37-.73-.55-1.28-1.28-2-1.83a13.74,13.74,0,0,0-2.19-1.27,35.39,35.39,0,0,0-4.2-1.28h-3.66c-.18.91-.36,1.64-.54,2.37-.73,2.74-1.46,5.48-2.38,8-2.74,9.13-5.66,18.08-9,26.85l-4.38,11.5c.73-.18,1.28-.55,2-.73a59.61,59.61,0,0,0,11-6.39,60.44,60.44,0,0,0,8.4-8.22A71.91,71.91,0,0,0,219.87,193.53Z" transform="translate(-30.39 -132.59)"/><path class="cls-1" d="M292.37,185.13a54.82,54.82,0,0,1-1.83,9.32,59.71,59.71,0,0,1-26.48,34.15A74.84,74.84,0,0,1,250,235c-2.38.73-4.93,1.46-7.49,2-.73.19-1.46.19-2,.37-.73.18-1.28.55-2,.73a6.06,6.06,0,0,1-3.1-.18,10.89,10.89,0,0,1-2.38-.19c-.55-.18-1.09-.54-1.82-.73a6.08,6.08,0,0,1-4.39-4.93,6.51,6.51,0,0,1,2.93-6.21c1.46-.73,2.55-1.64,4.2-2h.36c.37-.73.55-1.46.91-2.19,1.65-4.2,3.47-8.22,5.12-12.42,3.1-7.67,5.84-15.34,8.77-23,1.46-3.84,2.92-7.67,4.38-11.69.55-1.28.91-2.56,1.46-3.84-.18,0-.18-.18-.37-.36a4.93,4.93,0,0,1-.36-3.65,4.66,4.66,0,0,1,2.19-2.74,7.41,7.41,0,0,1,2-1.28c.18-.55.37-.91.55-1.46a4.32,4.32,0,0,1,5.48-1.65c.36,0,.73.37.91.55a24.17,24.17,0,0,1,15.16,2.38,23.59,23.59,0,0,1,8,7.3C291.64,174.17,292.74,179.84,292.37,185.13Zm-15.52,8.4a45.39,45.39,0,0,0,2.74-9.31,13.72,13.72,0,0,0,0-3.84,15.72,15.72,0,0,0-.74-2.74c-.36-.73-.73-1.46-1.27-2.37-.73-.55-1.28-1.28-2-1.83a13.74,13.74,0,0,0-2.19-1.27,35.54,35.54,0,0,0-4.21-1.28h-3.65c-.18.91-.36,1.64-.55,2.37-.73,2.74-1.46,5.48-2.37,8-2.74,9.13-5.66,18.08-9,26.85l-4.38,11.5c.73-.18,1.28-.55,2-.73a59.19,59.19,0,0,0,11-6.39,60,60,0,0,0,8.41-8.22A71.91,71.91,0,0,0,276.85,193.53Z" transform="translate(-30.39 -132.59)"/><path class="cls-1" d="M353.37,167.05c-.73.37-1.28.55-2,.91a8.93,8.93,0,0,1-2.37.92,18.31,18.31,0,0,1-3.11.36h-4.2c-2.92,0-5.84-.18-8.77-.18s-5.66,0-8.58.18h-1.1a2.36,2.36,0,0,0-.18,1.1c-.55,2.74-.91,5.3-1.64,8a21,21,0,0,1-1.1,4.56l3.84.55c2.37.18,4.75.36,7.12.73.91.18,5.84,1.1,7.12,1.1,1.83.36,3.11,1.46,3.11,3.28.18,1.83-1.46,3.11-3.11,3.29-1.28,0-11.87,1.46-14.24,1.64-2.19.37-4.57.55-6.76.74,0,.36-.18.54-.18.91-1.83,5.66-3.66,11.5-5.3,17.17-.91,2.55-1.64,5.11-2.56,7.67a66.56,66.56,0,0,1-2.19,6.39c-.18.55-.36.91-.55,1.46h7.49a98.12,98.12,0,0,1,10.23.91c.73.19,1.64.19,2.37.37a14.12,14.12,0,0,1,5.48,2.19c-.18,0,.37.37.55.37.37.36.91.54,1.28.91a2.67,2.67,0,0,1-.55,4.2,8.36,8.36,0,0,1-1.82.91,10.91,10.91,0,0,1-2.56.92,8.14,8.14,0,0,1-2.92.36h-4.39c-2.74,0-5.66-.18-8.58-.18s-5.85,0-8.77.18c-1.46.18-2.92.18-4.38.37a4,4,0,0,1-1.46,0,15,15,0,0,1-4,0,8.27,8.27,0,0,1-4.57-3.66,7.74,7.74,0,0,1-.73-6c1.1-2.93,1.46-6,2.56-8.95,3.65-10.6,6.94-21.19,10.23-31.78,1.64-5.48,3.65-10.78,5.29-16.26.73-2.19,1.47-4.38,2.2-6.75a37.55,37.55,0,0,1,1.64-4.2,16.67,16.67,0,0,1,1.1-2,6.46,6.46,0,0,1,5.84-2.93,6.87,6.87,0,0,1,3.29,1.46,20,20,0,0,0,3.28-.18,77.42,77.42,0,0,1,9.14,0,62.46,62.46,0,0,1,10.23.92,12.44,12.44,0,0,1,2.55.36,17.09,17.09,0,0,1,2.92.73c1.1.55,1.65.91,2.56,1.46l.37.37c.54.36.91.55,1.46.91A2.78,2.78,0,0,1,353.37,167.05Z" transform="translate(-30.39 -132.59)"/><path class="cls-1" d="M417.47,161.21a29.69,29.69,0,0,1-.55,3.83c-.55,2-1.1,3.84-1.64,5.66-1.46,4.75-3.11,9.5-4.57,14.25-1.83,5.66-3.84,11.51-5.66,17.17-2,6-3.84,12-5.85,18.08-.91,2.74-1.82,5.66-2.74,8.4-.36,1.28-.91,2.56-1.27,3.84-.19.73-.55,1.46-.73,2-.19.36-.19.54-.37.91a2.48,2.48,0,0,1-.37,1.09,15.57,15.57,0,0,1-1.46,2.38,6,6,0,0,1-4,1.83,4.2,4.2,0,0,1-3.29-.37,6.83,6.83,0,0,1-2.74-.73c-1.83-.91-3.11-3.29-3.65-5.3a46.64,46.64,0,0,1-.55-5.11c-.37-2.19-.55-4.38-.92-6.76-.54-3.83-1.09-7.67-1.64-11.69-.73-4.75-1.28-9.5-1.83-14.24-2,6.21-4.2,12.42-6.39,18.81-1.46,4-2.74,8.22-4.2,12.24-1.1,3.1-1.82,6.2-3.29,9.13,0-.19,0-.19.19-.37a16.34,16.34,0,0,1-1.46,2.19c0-.18.18-.36.36-.54a6.41,6.41,0,0,1-6.57,2.19,6.25,6.25,0,0,1-4.57-6c.18-3.29,1.64-6.57,2.74-9.68,3.47-9.5,6.76-19,10.23-28.49,2-5.3,4-10.78,6-16.07.92-2.56,2-5.12,3.11-7.67a24.33,24.33,0,0,1,1.46-3.29,11.47,11.47,0,0,1,1.46-3.47,8.58,8.58,0,0,0,1.28-1.28c.36-.37.73-.91,0,0a5.29,5.29,0,0,1,4-2.19,4.77,4.77,0,0,1,4,2.37c1.64,2.56,1.27,5.85,1.46,8.95l.54,7.12c.37,4.75.92,9.32,1.47,13.89.54,3.65,1.09,7.12,1.64,10.77-.18-.55-.18-1.1-.37-1.64.37,2.74.73,5.48,1.28,8.22q5.49-16.17,11-32.33c1.46-4.57,3.11-8.95,4.75-13.33.73-1.65,1.28-3.11,1.83-4.57a14,14,0,0,1,1.46-2.92c0-.19.18-.37.36-.55v-.18a7.61,7.61,0,0,0-.18.91,5.58,5.58,0,0,1,1.83-2.74,5.11,5.11,0,0,1,2.74-1.1,7.52,7.52,0,0,1,2,0,5.44,5.44,0,0,1,2.73,2.2A5.15,5.15,0,0,1,417.47,161.21Zm-10.05-3.47" transform="translate(-30.39 -132.59)"/><path class="cls-1" d="M173.22,262.68c-.19,2-2.92,2.74-4.57,1.83l-.18-.18c-.18,0-.37,0-.37-.19-.36,0-.91,0-1.09-.18a5.51,5.51,0,0,1-1.83-.36c1.1.36.55.18.18,0-.36,0-.54,0-.73-.19h-1.28l-2.73.55-3.29,1.1a22.88,22.88,0,0,0-4.57,2.74,39.52,39.52,0,0,0-4.2,3.65,162.79,162.79,0,0,0-16.62,18.81c-4.93,6.39-9.5,13-14.06,19.73-7.49,11.32-14.61,22.83-21.55,34.52-2.38,4.19-4.93,8.4-7.49,12.6a47.65,47.65,0,0,1-5.48,8,6.92,6.92,0,0,1-5.11,2.19,7.88,7.88,0,0,1-4.57-.91,6.79,6.79,0,0,1-3.11-4c-1.46-3.83-1.46-8.22-1.27-12.23,0-1.83.18-3.47.18-5.3.18-7.12.36-14.25.73-21.37C67.1,329,64,334.28,60.53,339.57c-5.11,8-10.23,15.89-15.71,23.75a8,8,0,0,1-1.09,1.27,6.45,6.45,0,0,1-3.66,2.56,6.74,6.74,0,0,1-5.29-.73c-1.65-.91-2.38-2.37-3.11-4-1.28-3.47-1.28-7.49-1.28-11.14.19-3.1.19-6.39.37-9.49.37-11.69.73-23.38,1.28-35.07C32.4,300.85,33,295,33.5,289c.18-3.1.73-6.39,1.1-9.49.54-3.11.73-7.13,3.65-8.77a3.46,3.46,0,0,1,3.28,0c3.29,2.19,3.11,6.94,3.48,10.41.18,3.1.36,6.21.36,9.5,0,5.47.18,11.14,0,16.62,0,5.66-.18,11.14-.36,16.8-.19,5.11-.37,10.23-.55,15.52,4.38-6.94,8.76-13.69,13.33-20.45,2.56-4,5.11-8,7.67-11.87,1.46-2,2.92-3.84,4.2-5.85a28.14,28.14,0,0,1,2.92-3.65,9.73,9.73,0,0,1,1.83-2c0-.18,0-.18.18-.18h0c0-.18,0-.18.19-.18h-.19a.19.19,0,0,0,.19-.19A.18.18,0,0,0,75,295a4.17,4.17,0,0,1,5.48,0v.18c.18,0,.18.19.18.19-.91-.74-1.1-.92-.37-.37.19.18.19.37.37.37l.18.18c.19.18.19.18.19.36,0-.18,0-.18-.19-.36a6.1,6.1,0,0,1,1.1,2.19,17.65,17.65,0,0,1,.55,2.92,47.25,47.25,0,0,0,.73,5.11,92.82,92.82,0,0,1,.36,12.42c.19,4.75,0,9.32-.18,14.07v6c4.93-8.22,10-16.44,15.16-24.48,6.21-9.5,12.6-18.81,19.36-27.94,6.57-8.4,13.33-16.8,21.37-23.93,5.11-4.56,10.77-8.76,17.71-10a13.54,13.54,0,0,1,3.84-.37,19.5,19.5,0,0,1,3.29.37,20.6,20.6,0,0,1,4.74,1.64,6.24,6.24,0,0,1,3.11,2.56,8,8,0,0,0,.55,1.28,1.39,1.39,0,0,1-.37-.92.57.57,0,0,0,.18.37,9.42,9.42,0,0,1,.73,1.46A8.92,8.92,0,0,1,173.22,262.68Zm-98.63,32.7c.19-.19.19-.37.37-.37Zm0,.18v0Zm5.85-.55s.18,0,.36.55C80.8,295.38,80.62,295.19,80.44,295Zm84.38-31.6a.54.54,0,0,1,.36.19A.54.54,0,0,0,164.82,263.41Zm2.74.55h0Z" transform="translate(-30.39 -132.59)"/><path class="cls-1" d="M176.68,307.06a2.74,2.74,0,0,1-2.38-2.55v-.73a1.69,1.69,0,0,1-.18-.92v-.18c-.18-.73-.36-1.46-.55-2.19a2.64,2.64,0,0,0-.36-1.1c0-.36,0-.36.18,0-.18-.18-.18-.36-.37-.55a16.12,16.12,0,0,0-.91-1.82c-.18-.18-.36-.55-.55-.73s-.18-.37-.36-.37c.36.37.36.55.18.18-.55-.54-.91-1.09-1.46-1.64-.37-.18-.55-.36-.91-.55,1.09.92.36.19,0,0-.55-.36-1.28-.73-1.83-1.09a10.38,10.38,0,0,0,1.28.55c-1.1-.37-2-.73-2.92-1.1.36.18.91.37,1.28.55a13.15,13.15,0,0,0-2.56-.73c.55.18.91.18,1.46.36a9,9,0,0,0-3.1,0,5.07,5.07,0,0,1,1.64-.18,7.71,7.71,0,0,0-2.92.73,3.65,3.65,0,0,0,1.46-.73,12.17,12.17,0,0,0-2.56,1.64c.37-.36.91-.73,1.28-1.09a32,32,0,0,0-4.2,4.38c.36-.36.73-.91,1.09-1.28a73,73,0,0,0-9.31,15.89c.37-.55.55-1.28.91-1.82l-1.64,3.83a19.34,19.34,0,0,1,.73-1.83,84.43,84.43,0,0,0-5.66,21.19c0-.73.18-1.46.18-2.19a45.66,45.66,0,0,0-.36,12.24c-.19-.74-.19-1.46-.37-2a15.64,15.64,0,0,0,1.1,4.2,8.22,8.22,0,0,0-.73-1.83,10.58,10.58,0,0,0,1.64,2.74c-.37-.55-.91-1.1-1.28-1.64a7,7,0,0,0,1.64,1.64,10.45,10.45,0,0,0-1.46-1.1,18.36,18.36,0,0,0,2,1.1c-.73-.18-1.28-.55-2-.73a15,15,0,0,0,2.38.55c-.55,0-1.28-.18-2-.18h3.1c-.73,0-1.46.18-2.19.18a13.71,13.71,0,0,0,2.92-.73c-.54.18-1.27.55-1.82.73a20.5,20.5,0,0,0,3.29-2c-.55.37-.92.91-1.47,1.28a32.8,32.8,0,0,0,4.94-5.12c-.55.55-.92,1.1-1.28,1.47a69.86,69.86,0,0,0,8.76-15.16,6.77,6.77,0,0,0-.73,1.64c.37-.91.73-1.83,1.28-2.92-.36.55-.55,1.28-.91,1.82a36.23,36.23,0,0,0,2.19-5.66,17.22,17.22,0,0,0,.91-2.92,42.42,42.42,0,0,1,1.83-4.2c1.46-2.74,4.93-3.84,7.85-3.11,2.92.55,5.12,3.66,5.12,6.58,0,3.47-1.1,6.94-2.2,10.23a51.92,51.92,0,0,1-3.65,9.31,67.14,67.14,0,0,1-9.49,15.53,31.79,31.79,0,0,1-6.4,5.66,20.88,20.88,0,0,1-9.31,3.1c-6.58.73-12.79-2.74-16.44-8.22-2.92-4.75-3.65-10.77-3.47-16.43a98.5,98.5,0,0,1,2.56-16.08,79.88,79.88,0,0,1,12.78-27.39c3.29-4.38,6.94-9.5,12.06-11.69,2.92-1.28,5.84-2.19,8.94-1.83A15.72,15.72,0,0,1,173,283.5c-.54-.36-.91-.73-1.27-.91a17.7,17.7,0,0,1,5.11,5.3,20.27,20.27,0,0,1,2.37,5.48,21.73,21.73,0,0,1,.37,11.87A2.72,2.72,0,0,1,176.68,307.06Z" transform="translate(-30.39 -132.59)"/><path class="cls-1" d="M246.81,283a26.77,26.77,0,0,1-.55,3.83c-.55,2-1.1,3.84-1.64,5.66-1.46,4.75-3.11,9.5-4.57,14.25-1.83,5.66-3.83,11.5-5.66,17.17-2,6-3.84,12.05-5.85,18.08-.91,2.74-1.82,5.66-2.74,8.4-.36,1.28-.91,2.56-1.27,3.83-.19.73-.55,1.47-.73,2-.19.37-.19.55-.37.92a2.48,2.48,0,0,1-.37,1.09,16.06,16.06,0,0,1-1.46,2.38,5.92,5.92,0,0,1-4,1.82,4.16,4.16,0,0,1-3.29-.36,6.83,6.83,0,0,1-2.74-.73c-1.83-.92-3.11-3.29-3.65-5.3a46.64,46.64,0,0,1-.55-5.11c-.37-2.2-.55-4.39-.92-6.76-.54-3.84-1.09-7.67-1.64-11.69-.73-4.75-1.28-9.5-1.83-14.25-2,6.21-4.2,12.42-6.39,18.82-1.46,4-2.74,8.21-4.2,12.23-1.09,3.11-1.82,6.21-3.29,9.13,0-.18,0-.18.19-.36a16.34,16.34,0,0,1-1.46,2.19c0-.18.18-.36.36-.55a6.39,6.39,0,0,1-6.57,2.19,6.24,6.24,0,0,1-4.57-6c.18-3.29,1.64-6.58,2.74-9.68,3.47-9.5,6.76-19,10.23-28.49,2-5.3,4-10.78,6-16.08.92-2.55,2-5.11,3.11-7.67a26.15,26.15,0,0,1,1.46-3.28,11.73,11.73,0,0,1,1.46-3.47,9.09,9.09,0,0,0,1.28-1.28c.36-.37.73-.92,0,0a5.29,5.29,0,0,1,4-2.19,4.77,4.77,0,0,1,4,2.37c1.64,2.56,1.27,5.85,1.46,8.95l.54,7.12c.37,4.75.92,9.32,1.47,13.88.54,3.66,1.09,7.13,1.64,10.78-.18-.55-.18-1.1-.37-1.64.37,2.73.74,5.47,1.28,8.21q5.49-16.16,11-32.32c1.46-4.57,3.11-9,4.75-13.34.73-1.64,1.28-3.1,1.83-4.56a14,14,0,0,1,1.46-2.92c0-.19.18-.37.36-.55v-.18a7.61,7.61,0,0,0-.18.91,5.58,5.58,0,0,1,1.83-2.74,5.11,5.11,0,0,1,2.74-1.1,7.52,7.52,0,0,1,2,0,5.51,5.51,0,0,1,2.74,2.2A5.18,5.18,0,0,1,246.81,283Zm-10.05-3.47" transform="translate(-30.39 -132.59)"/><path class="cls-1" d="M298.49,306.88a56.84,56.84,0,0,1-1.83,9.32,59.71,59.71,0,0,1-26.48,34.15,74.84,74.84,0,0,1-14.06,6.39c-2.38.73-4.94,1.46-7.49,2-.73.18-1.46.18-2,.37-.73.18-1.28.54-2,.73a6,6,0,0,1-3.1-.19,11.43,11.43,0,0,1-2.38-.18,18.31,18.31,0,0,0-1.83-.73,6.09,6.09,0,0,1-4.38-4.93,6.5,6.5,0,0,1,2.92-6.21c1.46-.73,2.56-1.64,4.2-2h.37c.37-.73.55-1.46.91-2.19,1.65-4.2,3.47-8.22,5.12-12.42,3.1-7.67,5.84-15.34,8.76-23,1.46-3.84,2.93-7.67,4.39-11.69.54-1.28.91-2.56,1.46-3.84-.19,0-.19-.18-.37-.36a4.89,4.89,0,0,1-.36-3.65,4.62,4.62,0,0,1,2.19-2.74,7.41,7.41,0,0,1,2-1.28c.18-.55.36-.92.55-1.46a4.31,4.31,0,0,1,5.47-1.65,1.56,1.56,0,0,1,.92.55,24.23,24.23,0,0,1,15.16,2.37,23.81,23.81,0,0,1,8,7.31C297.76,295.92,298.85,301.58,298.49,306.88ZM283,315.28A44.35,44.35,0,0,0,285.7,306a13,13,0,0,0,0-3.84,14.84,14.84,0,0,0-.73-2.74c-.36-.73-.73-1.46-1.28-2.37-.73-.55-1.27-1.28-2-1.83a13.9,13.9,0,0,0-2.2-1.28,37.28,37.28,0,0,0-4.2-1.27h-3.65c-.18.91-.36,1.64-.55,2.37-.73,2.74-1.46,5.48-2.37,8-2.74,9.13-5.66,18.08-9,26.84l-4.38,11.51c.73-.18,1.27-.55,2-.73a49.66,49.66,0,0,0,19.36-14.61A70.22,70.22,0,0,0,283,315.28Z" transform="translate(-30.39 -132.59)"/><path class="cls-1" d="M359.49,288.8c-.73.37-1.28.55-2,.91a9.21,9.21,0,0,1-2.38.92,18.19,18.19,0,0,1-3.1.36h-4.2c-2.92,0-5.85-.18-8.77-.18s-5.66,0-8.58.18h-1.1a2.36,2.36,0,0,0-.18,1.1c-.55,2.74-.91,5.29-1.65,8a20.51,20.51,0,0,1-1.09,4.57l3.83.55c2.38.18,4.75.36,7.13.73.91.18,5.84,1.09,7.12,1.09,1.83.37,3.11,1.46,3.11,3.29.18,1.83-1.47,3.11-3.11,3.29-1.28,0-11.87,1.46-14.25,1.64-2.19.37-4.56.55-6.75.73,0,.37-.18.55-.18.92-1.83,5.66-3.66,11.5-5.3,17.16-.91,2.56-1.65,5.12-2.56,7.68a66.56,66.56,0,0,1-2.19,6.39c-.18.54-.37.91-.55,1.46h7.49a95.47,95.47,0,0,1,10.23.91c.73.18,1.64.18,2.37.37a9.92,9.92,0,0,1,3.11.91,9.61,9.61,0,0,1,2.37,1.28c-.18,0,.37.36.55.36.36.37.91.55,1.28.92a2.67,2.67,0,0,1-.55,4.2,8.66,8.66,0,0,1-1.83.91,10.24,10.24,0,0,1-2.55.91,8,8,0,0,1-2.93.37h-4.38c-2.74,0-5.66-.18-8.58-.18s-5.85,0-8.77.18c-1.46.18-2.92.18-4.38.36a3.78,3.78,0,0,1-1.46,0,14.25,14.25,0,0,1-4,0,8.18,8.18,0,0,1-4.57-3.65,7.76,7.76,0,0,1-.73-6c1.1-2.92,1.46-6,2.56-8.95,3.65-10.59,6.94-21.18,10.23-31.77,1.64-5.48,3.65-10.78,5.29-16.26.73-2.19,1.46-4.38,2.19-6.76a40.54,40.54,0,0,1,1.65-4.2,20.27,20.27,0,0,1,1.09-2,6.48,6.48,0,0,1,5.85-2.92,6.79,6.79,0,0,1,3.28,1.46,20.11,20.11,0,0,0,3.29-.18,77.25,77.25,0,0,1,9.13,0,63.58,63.58,0,0,1,10.23.91,12.45,12.45,0,0,1,2.56.37,16.2,16.2,0,0,1,2.92.73c1.1.55,1.65.91,2.56,1.46l.36.37c.55.36.92.54,1.47.91A2.79,2.79,0,0,1,359.49,288.8Z" transform="translate(-30.39 -132.59)"/><path class="cls-1" d="M413.91,306.7c-2.92,5.66-8.4,9.86-14.07,12.42-3.1,1.46-6.39,2.55-9.49,3.65-1.65.55-3.11,1.28-4.75,1.83a30.7,30.7,0,0,1-3.84,1.09v.19c.37,1.09.73,2,1.1,2.92.73,1.82,1.28,3.83,2,5.66,1.46,3.65,2.74,7.31,4.2,10.77.55,1.47,1.28,2.93,1.82,4.39a25.61,25.61,0,0,1,1.28,2.37,13.69,13.69,0,0,1,1.1,2.92,6.92,6.92,0,0,1-.55,3.29,4.94,4.94,0,0,1-1.28,2c-.18,0,0,0,.37-.36a5.86,5.86,0,0,1-2.19,1.46,4.4,4.4,0,0,1-2.2.54,6.46,6.46,0,0,1-5.66-3.47,30.44,30.44,0,0,1-2.37-4.2c-1.28-2.92-2.56-5.66-3.84-8.58-.91-2-1.64-4-2.37-5.84-.37,1.09-.91,2.19-1.28,3.28-.91,2.19-1.83,4.57-2.74,6.76a20.65,20.65,0,0,1-2.37,4.93,32.84,32.84,0,0,1-2.93,4,6.66,6.66,0,0,1-7.3,1.28,6.59,6.59,0,0,1-4-6,18.57,18.57,0,0,1,.73-4.38c0-.55.18-.92.18-1.46a17,17,0,0,1,1.1-2.74c.55-1.46,1.28-2.93,1.83-4.39,1.64-3.65,3.1-7.3,4.56-10.95,2.74-6.76,5.3-13.7,7.86-20.64,1.46-3.47,2.74-6.94,4-10.41,1.28-3.84,2.56-7.67,4.2-11.51-.18.55-.54.92-.73,1.46a21.38,21.38,0,0,0,1.28-3.1,18.25,18.25,0,0,1,1.28-2.74c.18-.37.73-.91,1.1-1.46s0,0-.19.36a5.76,5.76,0,0,1,4-2.55,23.88,23.88,0,0,1,11.33-1.83,27.28,27.28,0,0,1,10.77,2.56,20.46,20.46,0,0,1,7.67,6.57C417.74,292.64,417.2,300.49,413.91,306.7Zm-12.06-5.12a16,16,0,0,0,1.28-2.55,6.39,6.39,0,0,0,.73-2v-1.46a12,12,0,0,1-.36-1.28,7.37,7.37,0,0,1-.73-1.28c-.55-.55-1.1-.91-1.65-1.46a13.82,13.82,0,0,0-2.19-1.28,14.38,14.38,0,0,0-4-1.09,27.17,27.17,0,0,0-4-.19h-1.64a2,2,0,0,0-.18.92c-.37,1.46-.55,2.74-.91,4.2q-1.11,3.82-2.2,7.67c-.91,3.1-1.82,6-2.74,9,1.1-.37,2-.55,3.11-.92,2.37-.91,4.56-1.64,6.94-2.55a30.27,30.27,0,0,0,6.21-3.47A28.46,28.46,0,0,0,401.85,301.58Z" transform="translate(-30.39 -132.59)"/><path class="cls-1" d="M458.83,304a10.91,10.91,0,0,1,.73-1.46s-.36,1.09-.18.55v-.37a.68.68,0,0,0,.18-.55c.18-.55.37-.91.55-1.46v-.73c.18-.91,0,1.1,0,.37v-2.93c0-.54.18,1.1,0,.55v-.36a1.37,1.37,0,0,0-.18-.73c0-.37-1.46-6.21-10.05-6.21.55.18-1.28.18-2.92.36.55-.18,1.28-.18,1.83-.36a14.29,14.29,0,0,0-4,1.09l1.64-.55a20.67,20.67,0,0,0-4.38,2.38,10.27,10.27,0,0,0,1.46-1.1,14.08,14.08,0,0,0-3.29,3.29c.37-.55.73-.91,1.1-1.46a18.57,18.57,0,0,0-2.19,3.65,6.94,6.94,0,0,0,.73-1.64,16.22,16.22,0,0,0-.92,4,6.61,6.61,0,0,1,.19-1.83,18.38,18.38,0,0,0,0,4.57c-.19-.55-.19-1.1-.37-1.83a30.89,30.89,0,0,0,1.64,5.84,6.36,6.36,0,0,0-.73-1.64,62.61,62.61,0,0,0,6.58,10.41c-.37-.55-.73-.91-1.1-1.46,3.84,4.93,8.4,9.68,11.14,15.34a25.9,25.9,0,0,1,2.93,9.68A18.12,18.12,0,0,1,456.82,350c-4.38,7.67-13.7,13.15-22.65,12.42a34.42,34.42,0,0,1-6.57-1.46,27.75,27.75,0,0,1-7.12-4.2,20.69,20.69,0,0,1-6.76-11,21.15,21.15,0,0,1,.55-12.6c1.64-4.38,4.38-8.58,8.76-10.41a6.25,6.25,0,0,1,4-.55,4.8,4.8,0,0,1,2.92,2,5.11,5.11,0,0,1-.54,6.94,25.93,25.93,0,0,0-1.83,2.38,5.41,5.41,0,0,1,.91-1.28c-.55.73-1.28,1.46-1.82,2.19a4.91,4.91,0,0,0,.91-1.1,22.29,22.29,0,0,0-2,3.47c.18-.54.36-.91.55-1.46a16.29,16.29,0,0,0-1.1,4,3.59,3.59,0,0,0,.18-1.46,15,15,0,0,0,0,4c0-.55-.18-1.1-.18-1.65a17.43,17.43,0,0,0,.73,2.93,3.53,3.53,0,0,0-.73-1.46c.73,1.27,1.46,2.55,2.19,3.65-.18-.37-.54-.73-.91-1.28a15,15,0,0,0,2.92,2.92,5.84,5.84,0,0,1-1.28-.91,19.72,19.72,0,0,0,4.2,2.55,3.64,3.64,0,0,0-1.46-.72,19.05,19.05,0,0,0,4.57,1.27c-.55-.18-1.1-.18-1.83-.36a17.91,17.91,0,0,0,4.39,0c-.73.18-1.28.18-1.83.36a28.63,28.63,0,0,0,4.2-1.27,10.46,10.46,0,0,1-1.46.72,42,42,0,0,0,3.84-2.37c-.55.37-.92.73-1.47,1.1a19.51,19.51,0,0,0,3.47-3.29c-.36.37-.73.91-1.09,1.28a21.83,21.83,0,0,0,2-3.47,7.12,7.12,0,0,1-.73,1.64,14.26,14.26,0,0,0,.91-2.56c-.18.55-.18,1.1-.37,1.83a11.74,11.74,0,0,0,0-3.65c.19.55.19,1.09.37,1.82a40.2,40.2,0,0,0-1.28-4.38,6.62,6.62,0,0,0,.73,1.65,42.64,42.64,0,0,0-5.48-8.59c.37.55.73.91,1.1,1.46-4.38-5.66-9.32-11-12.6-17.35A34.73,34.73,0,0,1,425,302.5a23.92,23.92,0,0,1,2.56-12.24,22.83,22.83,0,0,1,25.75-11.87c15.71,3.65,16.07,16.62,16.26,19.18C469.61,309.44,457.19,308.71,458.83,304Z" transform="translate(-30.39 -132.59)"/></svg>